<svg width="204.57mm" height="219.89mm" version="1.1" viewBox="0 0 204.57 219.89" xmlns="http://www.w3.org/2000/svg">
 <g>
  <path d="m2.5122 56.053h25.467v13.107h-8.5446v39.972h-8.3782v-39.972h-8.5446z" style="font-variant-caps:normal;font-variant-east-asian:normal;font-variant-ligatures:normal;font-variant-numeric:normal;white-space:pre"/>
  <path d="m31.827 56.053h8.3782v18.574h9.155v-18.574h8.4152v53.079h-8.4152v-21.471h-9.155v21.471h-8.3782z" style="font-variant-caps:normal;font-variant-east-asian:normal;font-variant-ligatures:normal;font-variant-numeric:normal;white-space:pre"/>
  <path d="m80.061 100.37h-9.5434l-1.3131 8.762h-8.5631l10.191-53.079h9.1365l10.191 53.079h-8.7666zm-1.757-11.478-2.9962-19.081-2.9777 19.081z" style="font-variant-caps:normal;font-variant-east-asian:normal;font-variant-ligatures:normal;font-variant-numeric:normal;white-space:pre"/>
  <path d="m92.934 109.13v-53.079h13.964q3.8839 0 5.9369 1.3034 2.0529 1.3034 3.3106 4.8517 1.2576 3.5121 1.2576 8.581 0 4.4172-0.96173 7.6396-0.96174 3.1862-2.6448 5.1776-1.0727 1.2672-2.9407 2.1 1.4981 0.97758 2.1824 1.9552 0.46237 0.65174 1.3316 2.7879 0.88775 2.1362 1.1837 3.2948l4.0504 15.388h-9.4694l-4.4758-16.221q-0.85077-3.15-1.5166-4.0914-0.90625-1.231-2.0529-1.231h-0.73979v21.543zm8.4152-31.572h3.5325q0.57334 0 2.2194-0.72413 0.83228-0.32587 1.3501-1.6655 0.53635-1.3396 0.53635-3.0776 0-2.5707-0.83227-3.9465-0.83227-1.3759-3.1256-1.3759h-3.6805z" style="font-variant-caps:normal;font-variant-east-asian:normal;font-variant-ligatures:normal;font-variant-numeric:normal;white-space:pre"/>
  <path d="m122.25 56.053h22.453v11.333h-14.056v8.4362h13.039v10.826h-13.039v10.464h14.463v12.021h-22.86z" style="font-variant-caps:normal;font-variant-east-asian:normal;font-variant-ligatures:normal;font-variant-numeric:normal;white-space:pre"/>
  <path d="m160.92 56.053h8.3967v28.857q0 9.0879-0.83227 13.831-0.81378 4.7431-3.3106 8.0379-2.4783 3.2948-6.3622 3.2948-4.1059 0-6.3622-2.1724-2.2564-2.1724-3.4955-6.3362-1.2207-4.2-1.4426-10.355l8.0083-2.1362q0.0186 3.5121 0.31441 5.2138 0.29591 1.7017 0.99872 2.7517 0.48087 0.68796 1.3686 0.68796 1.4056 0 2.0529-2.0276 0.66581-2.0638 0.66581-6.9155z" style="font-variant-caps:normal;font-variant-east-asian:normal;font-variant-ligatures:normal;font-variant-numeric:normal;white-space:pre"/>
  <path d="m191.62 100.37h-9.5434l-1.3131 8.762h-8.5631l10.191-53.079h9.1365l10.191 53.079h-8.7666zm-1.757-11.478-2.9962-19.081-2.9777 19.081z" style="font-variant-caps:normal;font-variant-east-asian:normal;font-variant-ligatures:normal;font-variant-numeric:normal;white-space:pre"/>
 </g>
</svg>
